<?xml version="1.0" encoding="iso-8859-1"?>
<!-- Generator: Adobe Illustrator 19.0.0, SVG Export Plug-In . SVG Version: 6.00 Build 0)  -->
<svg version="1.1" id="Capa_1" xmlns="http://www.w3.org/2000/svg" xmlns:xlink="http://www.w3.org/1999/xlink" x="0px" y="0px"
	 viewBox="0 0 512 512" style="enable-background:new 0 0 512 512;" xml:space="preserve">
<path style="fill:#84CAFF;" d="M512,256l-7.501,9.371c-1.13,1.41-28.123,34.914-71.888,68.748
	c-25.853,19.982-52.236,35.934-78.419,47.416c-33.244,14.572-66.278,21.963-98.191,21.963s-64.948-7.391-98.191-21.963
	c-26.183-11.481-52.566-27.433-78.419-47.416c-43.765-33.834-70.758-67.338-71.888-68.748L0,256l7.501-9.371
	c1.13-1.41,28.123-34.914,71.888-68.748c25.853-19.982,52.236-35.934,78.419-47.416c33.244-14.572,66.278-21.963,98.191-21.963
	s64.948,7.391,98.191,21.963c26.183,11.481,52.566,27.433,78.419,47.416c43.765,33.834,70.758,67.338,71.888,68.748L512,256z"/>
<path style="fill:#00A6FF;" d="M512,256l-7.501,9.371c-1.13,1.41-28.123,34.914-71.888,68.748
	c-25.853,19.982-52.236,35.934-78.419,47.416c-33.244,14.572-66.278,21.963-98.191,21.963V108.503
	c31.914,0,64.948,7.391,98.191,21.963c26.183,11.481,52.566,27.433,78.419,47.416c43.765,33.834,70.758,67.338,71.888,68.748
	L512,256z"/>
<path style="fill:#CAE8F9;" d="M403.497,256c0,81.33-66.168,147.497-147.497,147.497S108.503,337.33,108.503,256
	S174.67,108.503,256,108.503S403.497,174.67,403.497,256z"/>
<path style="fill:#A3D9F6;" d="M403.497,256c0,81.33-66.168,147.497-147.497,147.497V108.503
	C337.33,108.503,403.497,174.67,403.497,256z"/>
<path style="fill:#00459F;" d="M341.31,256c0,47.046-38.264,85.31-85.31,85.31s-85.31-38.264-85.31-85.31s38.264-85.31,85.31-85.31
	S341.31,208.954,341.31,256z"/>
<path style="fill:#002D6B;" d="M341.31,256c0,47.046-38.264,85.31-85.31,85.31V170.69C303.046,170.69,341.31,208.954,341.31,256z"/>
<g>
</g>
<g>
</g>
<g>
</g>
<g>
</g>
<g>
</g>
<g>
</g>
<g>
</g>
<g>
</g>
<g>
</g>
<g>
</g>
<g>
</g>
<g>
</g>
<g>
</g>
<g>
</g>
<g>
</g>
</svg>
