<svg xmlns="http://www.w3.org/2000/svg"  viewBox="0 0 128 128" width="128px" height="128px"><path fill="#fff" d="M106.4,21.6C106.4,21.6,106.4,21.6,106.4,21.6C83-1.9,45-1.9,21.6,21.6C-1.9,45-1.9,83,21.6,106.4 C33.3,118.1,48.6,124,64,124c7.4,0,14.9-1.4,21.9-4.1c7.5-2.9,14.5-7.4,20.5-13.4c9.6-9.6,15.3-21.7,17-34.2 C125.9,54.3,120.3,35.4,106.4,21.6z"/><path fill="#71c2ff" d="M96.7,48.8c-0.9-2-3.6-2.3-5-0.6L66.3,78c-0.5,0.6-1.3,1-2.2,1c0,0-0.1,0-0.1,0c-0.8,0-1.6-0.3-2.1-0.9 L47,63.2c-1-1-1.3-2.7-0.5-3.9c1.1-1.6,3.3-1.8,4.6-0.5l12.7,12.7L89,42.1c1-1.2,1-3-0.2-4.1c-7-6.7-16.7-10.6-27.3-9.9 c-17.9,1.2-32.4,15.6-33.5,33.5c-1.4,21.7,16.5,39.7,38.2,38.3c18-1.1,32.6-15.8,33.6-33.8C100.3,59.9,99.1,54.1,96.7,48.8z"/><path fill="#444b54" d="M64,127C29.3,127,1,98.7,1,64S29.3,1,64,1s63,28.3,63,63S98.7,127,64,127z M64,7C32.6,7,7,32.6,7,64 s25.6,57,57,57s57-25.6,57-57S95.4,7,64,7z"/></svg>