<?xml version="1.0" encoding="UTF-8"?>
<svg xmlns="http://www.w3.org/2000/svg" xmlns:xlink="http://www.w3.org/1999/xlink" viewBox="0 0 96 96" width="96px" height="96px">
<g id="surface6967770">
<path style=" stroke:none;fill-rule:nonzero;fill:rgb(20.392157%,59.607846%,85.882354%);fill-opacity:1;" d="M 16 8 C 11.578125 8 8 11.578125 8 16 L 8 64 C 8 68.421875 11.578125 72 16 72 L 64 72 C 68.421875 72 72 68.421875 72 64 L 72 16 C 72 11.578125 68.421875 8 64 8 Z M 16 16 L 64 16 L 64 64 L 16 64 Z M 80 24 L 80 80 L 24 80 L 24 88 L 80 88 C 84.421875 88 88 84.421875 88 80 L 88 24 Z M 53.171875 25.171875 L 36 42.34375 L 26.828125 33.171875 L 21.171875 38.828125 L 36 53.65625 L 58.828125 30.828125 Z M 53.171875 25.171875 "/>
</g>
</svg>
